# xmcd
#
# Track frame offsets: 
#        150
#        11730
#        22648
#        36870
#        50738
#        67891
#        84315
#        97813
#        112366
#        127686
#        142915
#
# Disc length: 2129 seconds
#
# Revision: 0
# Processed by: cddbd v1.5.2PL0 Copyright (c) Steve Scherf et al.
# Submitted via: ExactAudioCopy v0.99pb4
#
DISCID=80084f0b
DTITLE=Knoblauch-Nuss - Radio Hitzefrei
DYEAR=2015
DGENRE=Blues
TTITLE0=Ambrosia
TTITLE1=König Preußen
TTITLE2=Heilfroh
TTITLE3=Mensch
TTITLE4=Schwäbische Eisenbahn
TTITLE5=Soweit
TTITLE6=Liebling Haschisch
TTITLE7=64
TTITLE8=Kraken
TTITLE9=Freiham
TTITLE10=Viel Glück
EXTD=
EXTT0=
EXTT1=
EXTT2=
EXTT3=
EXTT4=
EXTT5=
EXTT6=
EXTT7=
EXTT8=
EXTT9=
EXTT10=
PLAYORDER=
